# xmcd
#
# Track frame offsets:
#	150
#	2512
#	18182
#	33902
#	51620
#	70022
#	87405
#	100875
#	111282
#	133515
#	149505
#	168452
#	188700
#	206130
#	219190
#	241592
#	263730
#	281032
#
# Disc length: 3977 seconds
#
# Revision: 0
# Processed by: cddbd v1.5.2PL0 Copyright (c) Steve Scherf et al.
# Submitted via: EZCDAudioConverter 3.1.5.1
#
DISCID=fc0f8712
DTITLE=Various Artist - Óáí Ñáäéüöùíï [CD1]
DYEAR=1996
DGENRE=Folklore
TTITLE0=No Artist - Σήμα Μελωδία
TTITLE1=Γρηγόρης Ψαριανός - Σαν Ραδιόφωνο
TTITLE2=Τάνια Τσανακλίδου - Πεθύμησα ένα σύννεφο
TTITLE3=Άγαμοι Θύται - Πειρατικό
TTITLE4=Παιδική Χορωδία Τυπάλδου - Η Σωτηρία Της Ψυχής
TTITLE5=Βασίλης Λέκκας - 	Ένα Κόκκινο Σημάδι
TTITLE6=Ελένη Τσαλιγοπούλου - Μ' Ένα Καράβι Ψεύτικο
TTITLE7=Μαρίζα Κωχ - Φάτα Μοργκάνα
TTITLE8=Μανώλης Μητσιάς - Ερωτικό
TTITLE9=Ελένη Βιτάλη - Ίσως Φταίνε Τα Φεγγάρια
TTITLE10=Μελίνα Τανάγρη - Έρημος
TTITLE11=Γιάννης Πάριος - Σήμερα
TTITLE12=Έλλη Πασπαλά - Τρεις Μέρες
TTITLE13=Γιάννης Κότσιρας - Αλεξάνδρεια
TTITLE14=Ομαδική Απόδραση - Η Μπαλάντα Του Αϊμάν
TTITLE15=Χάρης and Πάνος Κατσιμίχας - Δωμάτιο
TTITLE16=Κώστας Θωμαΐδης - Κάνιγγος
TTITLE17=Βασίλης Λέκκας - Κοίτα Με Στα Μάτια
EXTD=
EXTT0=
EXTT1=
EXTT2=
EXTT3=
EXTT4=
EXTT5=
EXTT6=
EXTT7=
EXTT8=
EXTT9=
EXTT10=
EXTT11=
EXTT12=
EXTT13=
EXTT14=
EXTT15=
EXTT16=
EXTT17=
PLAYORDER=
